# xmcd
# Track frame offsets:
# 150
# 17765
# 32299
# 46588
# 65038
# 81688
# 98095
# 109796
# 127788
#
# Disc length: 1972 seconds
# Revision: 0
# Processed by: cddbd v1.5.1PL0 Copyright (c) Steve Scherf et al.
# Submitted via: VisiTrax 2.9.10.228 - For more info visit www.synapsa.com
#
DISCID=6807b209
DTITLE=Various Artist - Hits Monthly Nashville  PHN0201
DYEAR=1900
DGENRE=Karaoke
TTITLE0=Tippin, Aaron - Where The Stars And Stripes And The
TTITLE1=Jones, George and Garth - Beer Run
TTITLE2=Keith, Toby - I Wanna Talk About Me
TTITLE3=O'Neal, Jamie - Shiver
TTITLE4=Evans, Sara - Saints and Angels
TTITLE5=Black, Clint and Lisa - Easy For Me To Say
TTITLE6=Dixie Chicks - Some Days You Gotta Dance
TTITLE7=Strait, George - Run
TTITLE8=Bell, David - Riding With Private Malone
EXTD=
EXTT0=
EXTT1=
EXTT2=
EXTT3=
EXTT4=
EXTT5=
EXTT6=
EXTT7=
EXTT8=
PLAYORDER=
